<svg xmlns="http://www.w3.org/2000/svg" viewBox="-26 -1416 13229 1480" width="894" height="100">
  <g transform="scale(1 -1)"><path d="M328.63330078125 1058.17578125H14.453857421875V1320.0H941.72900390625V1058.17578125H627.549560546875V0.0H328.63330078125ZM1740.54296875 0.0V133.271240234375Q1731.6337890625 112.544189453125 1695.49755859375 74.680908203125Q1659.361328125 36.817626953125 1599.3616943359375 6.4088134765625Q1539.362060546875 -24.0 1458.54443359375 -24.0Q1339.3623046875 -24.0 1249.22607421875 34.3638916015625Q1159.08984375 92.727783203125 1109.090087890625 191.182373046875Q1059.09033203125 289.636962890625 1059.09033203125 410.0Q1059.09033203125 530.363037109375 1109.090087890625 628.817626953125Q1159.08984375 727.272216796875 1249.22607421875 786.1361083984375Q1339.3623046875 845.0 1458.54443359375 845.0Q1536.452880859375 845.0 1594.0433349609375 820.318603515625Q1651.6337890625 795.63720703125 1688.042724609375 762.2740478515625Q1724.45166015625 728.910888671875 1737.6337890625 701.274658203125V821.0H2039.64111328125V0.0ZM1357.279296875 410.0Q1357.279296875 353.63818359375 1383.278564453125 309.184814453125Q1409.27783203125 264.7314453125 1452.640380859375 239.64111328125Q1496.0029296875 214.55078125 1548.54736328125 214.55078125Q1603.546142578125 214.55078125 1645.81787109375 239.913818359375Q1688.089599609375 265.27685546875 1712.3162841796875 309.730224609375Q1736.54296875 354.18359375 1736.54296875 410.0Q1736.54296875 465.81640625 1712.3162841796875 510.269775390625Q1688.089599609375 554.72314453125 1645.81787109375 580.586181640625Q1603.546142578125 606.44921875 1548.54736328125 606.44921875Q1496.0029296875 606.44921875 1452.640380859375 580.85888671875Q1409.27783203125 555.2685546875 1383.278564453125 510.815185546875Q1357.279296875 466.36181640625 1357.279296875 410.0ZM2536.64208984375 0.0H2232.08935546875V1376.0H2536.64208984375ZM3036.64208984375 0.0H2732.08935546875V1376.0H3036.64208984375ZM3474.508895602551 346.49848942598186Q3478.0090634441085 302.000783260602 3502.7585878930286 267.75276938569993Q3527.508112341949 233.5047555107978 3572.0067696094884 214.25590242810785Q3616.505426877028 195.00704934541793 3678.003133042408 195.00704934541793Q3735.50162246839 195.00704934541793 3782.251090970124 206.75618216403717Q3829.0005594718587 218.5053149826564 3863.5006154190446 236.75427995971802Q3898.0006713662306 255.00324493677968 3916.5009511021594 274.0026854649211L4034.503524672709 85.99608369699004Q4009.504196038939 58.99776211256574 3964.2543918540896 33.748629293946514Q3919.00458766924 8.499496475327291 3845.0040841445675 -7.7502517623363545Q3771.003580619895 -24.0 3658.002349781806 -24.0Q3521.5020700458767 -24.0 3415.5012867852747 26.999552422513148Q3309.5005035246727 77.9991048450263 3248.9998321584426 177.2490209242475Q3188.499160792212 276.4989370034687 3188.499160792212 419.49994405281416Q3188.499160792212 539.4999440528142 3240.9994405281413 635.9999440528142Q3293.4997202640707 732.4999440528142 3393.2501958151506 788.749972026407Q3493.00067136623 845.0 3634.001454626832 845.0Q3768.0024616761775 845.0 3866.253161016001 796.0001118943717Q3964.503860355824 747.0002237887434 4018.004196038939 650.4998881056283Q4071.5045317220543 553.9995524225131 4071.5045317220543 410.49826563723843Q4071.5045317220543 402.49826563723843 4071.0045317220543 378.24834955801725Q4070.5045317220543 353.998433478796 4068.5045317220543 346.49848942598186ZM3785.994964753273 504.9987691619111Q3784.994964753273 537.498825109097 3768.9954682779457 568.9977621125657Q3752.9959718026184 600.4966991160345 3720.9974264294506 620.9955801723173Q3688.9988810562827 641.4944612286001 3638.50162246839 641.4944612286001Q3588.504643616426 641.4944612286001 3554.2561821640375 621.9955801723173Q3520.0077207116483 602.4966991160345 3502.008280183507 571.4977621125657Q3484.008839655365 540.498825109097 3481.509007496923 504.9987691619111ZM4506.55029296875 0.0H4203.08837890625V821.0H4506.55029296875V693.909912109375H4501.55029296875Q4510.36865234375 717.2734375 4541.4140625 752.727783203125Q4572.45947265625 788.18212890625 4628.232177734375 816.591064453125Q4684.0048828125 845.0 4765.27783203125 845.0Q4821.8232421875 845.0 4869.823486328125 827.7271728515625Q4917.82373046875 810.454345703125 4939.823974609375 793.545166015625L4821.548583984375 546.72119140625Q4808.27587890625 564.266845703125 4772.548583984375 582.4488525390625Q4736.8212890625 600.630859375 4683.912109375 600.630859375Q4622.6396484375 600.630859375 4583.3218994140625 569.9041748046875Q4544.004150390625 539.177490234375 4525.2772216796875 495.2691650390625Q4506.55029296875 451.36083984375 4506.55029296875 411.81591796875ZM6956.91943359375 1320.0V0.0H6658.548583984375V777.353759765625L6671.548828125 997.8125L6620.91162109375 744.62548828125L6399.098876953125 106.18359375H6106.0009765625L5884.91552734375 744.62548828125L5834.551025390625 997.8125L5847.55126953125 777.353759765625V0.0H5548.90771484375V1320.0H5969.2822265625L6234.7314453125 439.281494140625L6252.91357421875 334.461181640625L6271.095703125 439.281494140625L6537.09033203125 1320.0ZM7832.54296875 0.0V133.271240234375Q7823.6337890625 112.544189453125 7787.49755859375 74.680908203125Q7751.361328125 36.817626953125 7691.3616943359375 6.4088134765625Q7631.362060546875 -24.0 7550.54443359375 -24.0Q7431.3623046875 -24.0 7341.22607421875 34.3638916015625Q7251.08984375 92.727783203125 7201.090087890625 191.182373046875Q7151.09033203125 289.636962890625 7151.09033203125 410.0Q7151.09033203125 530.363037109375 7201.090087890625 628.817626953125Q7251.08984375 727.272216796875 7341.22607421875 786.1361083984375Q7431.3623046875 845.0 7550.54443359375 845.0Q7628.452880859375 845.0 7686.0433349609375 820.318603515625Q7743.6337890625 795.63720703125 7780.042724609375 762.2740478515625Q7816.45166015625 728.910888671875 7829.6337890625 701.274658203125V821.0H8131.64111328125V0.0ZM7449.279296875 410.0Q7449.279296875 353.63818359375 7475.278564453125 309.184814453125Q7501.27783203125 264.7314453125 7544.640380859375 239.64111328125Q7588.0029296875 214.55078125 7640.54736328125 214.55078125Q7695.546142578125 214.55078125 7737.81787109375 239.913818359375Q7780.089599609375 265.27685546875 7804.3162841796875 309.730224609375Q7828.54296875 354.18359375 7828.54296875 410.0Q7828.54296875 465.81640625 7804.3162841796875 510.269775390625Q7780.089599609375 554.72314453125 7737.81787109375 580.586181640625Q7695.546142578125 606.44921875 7640.54736328125 606.44921875Q7588.0029296875 606.44921875 7544.640380859375 580.85888671875Q7501.27783203125 555.2685546875 7475.278564453125 510.815185546875Q7449.279296875 466.36181640625 7449.279296875 410.0ZM8602.55029296875 0.0H8299.08837890625V821.0H8602.55029296875V693.909912109375H8597.55029296875Q8606.36865234375 717.2734375 8637.4140625 752.727783203125Q8668.45947265625 788.18212890625 8724.232177734375 816.591064453125Q8780.0048828125 845.0 8861.27783203125 845.0Q8917.8232421875 845.0 8965.823486328125 827.7271728515625Q9013.82373046875 810.454345703125 9035.823974609375 793.545166015625L8917.548583984375 546.72119140625Q8904.27587890625 564.266845703125 8868.548583984375 582.4488525390625Q8832.8212890625 600.630859375 8779.912109375 600.630859375Q8718.6396484375 600.630859375 8679.321899414062 569.9041748046875Q8640.004150390625 539.177490234375 8621.277221679688 495.2691650390625Q8602.55029296875 451.36083984375 8602.55029296875 411.81591796875ZM9048.453369140625 821.0H9188.179443359375V1158.0H9488.55029296875V821.0H9673.09423828125V570.8125H9488.55029296875V342.367919921875Q9488.55029296875 291.369140625 9504.004272460938 259.8692626953125Q9519.458251953125 228.369384765625 9558.91259765625 228.369384765625Q9586.275634765625 228.369384765625 9605.275512695312 240.005615234375Q9624.275390625 251.641845703125 9628.275390625 255.91455078125L9732.004638671875 40.00048828125Q9724.82275390625 33.5458984375 9688.549438476562 17.909423828125Q9652.276123046875 2.27294921875 9596.138916015625 -10.863525390625Q9540.001708984375 -24.0 9471.091796875 -24.0Q9347.908447265625 -24.0 9268.0439453125 45.5006103515625Q9188.179443359375 115.001220703125 9188.179443359375 260.18408203125V570.8125H9048.453369140625ZM9823.7255859375 0.0V821.0H10105.186767578125V0.0ZM9835.6376953125 911.998779296875 9746.72705078125 1034.45556640625 10071.273681640625 1315.002685546875 10215.91259765625 1133.09033203125ZM10843.64111328125 845.0Q10930.27783203125 845.0 11012.096313476562 810.1817626953125Q11093.914794921875 775.363525390625 11146.96044921875 699.499755859375Q11200.006103515625 623.635986328125 11200.006103515625 500.908447265625V0.0H10895.453369140625V450.816650390625Q10895.453369140625 538.5419921875 10853.454223632812 583.405029296875Q10811.455078125 628.26806640625 10743.456298828125 628.26806640625Q10698.3662109375 628.26806640625 10658.639770507812 604.450439453125Q10618.913330078125 580.6328125 10594.686645507812 538.451904296875Q10570.4599609375 496.27099609375 10570.4599609375 440.7265625V0.0H10266.45263671875V821.0H10570.4599609375V700.274169921875Q10581.551025390625 733.364990234375 10620.369140625 766.728271484375Q10659.187255859375 800.091552734375 10717.6416015625 822.5457763671875Q10776.095947265625 845.0 10843.64111328125 845.0ZM11618.508895602552 346.49848942598186Q11622.00906344411 302.000783260602 11646.75858789303 267.75276938569993Q11671.50811234195 233.5047555107978 11716.006769609488 214.25590242810785Q11760.505426877027 195.00704934541793 11822.003133042408 195.00704934541793Q11879.50162246839 195.00704934541793 11926.251090970123 206.75618216403717Q11973.000559471859 218.5053149826564 12007.500615419045 236.75427995971802Q12042.00067136623 255.00324493677968 12060.50095110216 274.0026854649211L12178.50352467271 85.99608369699004Q12153.504196038939 58.99776211256574 12108.25439185409 33.748629293946514Q12063.00458766924 8.499496475327291 11989.004084144566 -7.7502517623363545Q11915.003580619894 -24.0 11802.002349781806 -24.0Q11665.502070045877 -24.0 11559.501286785275 26.999552422513148Q11453.500503524672 77.9991048450263 11392.999832158443 177.2490209242475Q11332.499160792213 276.4989370034687 11332.499160792213 419.49994405281416Q11332.499160792213 539.4999440528142 11384.999440528143 635.9999440528142Q11437.499720264072 732.4999440528142 11537.250195815152 788.749972026407Q11637.00067136623 845.0 11778.001454626832 845.0Q11912.002461676178 845.0 12010.253161016 796.0001118943717Q12108.503860355824 747.0002237887434 12162.004196038939 650.4998881056283Q12215.504531722054 553.9995524225131 12215.504531722054 410.49826563723843Q12215.504531722054 402.49826563723843 12215.004531722054 378.24834955801725Q12214.504531722054 353.998433478796 12212.504531722054 346.49848942598186ZM11929.994964753272 504.9987691619111Q11928.994964753272 537.498825109097 11912.995468277946 568.9977621125657Q11896.995971802618 600.4966991160345 11864.99742642945 620.9955801723173Q11832.998881056283 641.4944612286001 11782.50162246839 641.4944612286001Q11732.504643616427 641.4944612286001 11698.256182164037 621.9955801723173Q11664.007720711648 602.4966991160345 11646.008280183507 571.4977621125657Q11628.008839655366 540.498825109097 11625.509007496923 504.9987691619111ZM12350.908447265625 821.0H13163.822998046875L12754.373046875 211.640869140625H13131.7314453125V0.0H12284.72607421875L12694.176025390625 610.08642578125H12350.908447265625Z" fill="#f4f2ef"/></g>
</svg>